# xmcd
#
# Track frame offsets:
#	150
#	9685
#	27037
#	41565
#	52494
#	72334
#	84463
#	95477
#	112139
#	124643
#	140405
#	154956
#
# Disc length: 2233 seconds
#
# Revision: 1
# Processed by: cddbd v1.4PL0 Copyright (c) Steve Scherf et al.
# Submitted via: EasyCDDAExtractor 5.1.0
#
DISCID=a808b70c
DTITLE=Various Artist - Argentina
DYEAR=1998
DGENRE=Country
TTITLE0=Pollerita
TTITLE1=En Una Zamba
TTITLE2=Una Lagrima Tuya
TTITLE3=Porteñita
TTITLE4=Romance Del Molinero
TTITLE5=La Despedida
TTITLE6=Chinita Santiagueña
TTITLE7=Sueño De Un Pobre
TTITLE8=El Coya Triste
TTITLE9=Nostalgias Santiaguenas
TTITLE10=Añoranzas
TTITLE11=Una Lagrima
EXTD=
EXTT0=
EXTT1=
EXTT2=
EXTT3=
EXTT4=
EXTT5=
EXTT6=
EXTT7=
EXTT8=
EXTT9=
EXTT10=
EXTT11=
PLAYORDER=
